<svg xmlns="http://www.w3.org/2000/svg" width="72" height="26" >
    <defs>
        <style>
            .cls-1 {
            fill: #1a1a1a;
            }

            .cls-2 {
               fill: #ed202c;
               // fill: #F6CE00;
            }

            .cls-3 {
               fill: #b42025;
               //fill: #007bff;
            }
        </style>
    </defs>
    <title>flespi_logo</title>
        <g>
            <path class="cls-1"
                  d="M23.5053,11.6036H22.2041V10.1007h1.3012V9.4952c0-2.9384,1.772-3.88,3.6563-3.88a6.7539,6.7539,0,0,1,.74.0449V7.2076a4.2841,4.2841,0,0,0-.56-.0449c-1.3233,0-2.041.7178-2.041,2.3325v.6055h2.49v1.5029H25.3V21.7648H23.5053Z"/>
            <path class="cls-1" d="M29.7392,5.5475h1.772V21.7648h-1.772Z"/>
            <path class="cls-1"
                  d="M38.9794,9.8092c3.4322,0,5.5406,2.4673,5.5406,5.9668,0,.0669,0,.314-.0225.5381H35.144a3.9609,3.9609,0,0,0,4.1943,4.1723A4.2707,4.2707,0,0,0,42.9721,18.67l1.1665.8521a5.4243,5.4243,0,0,1-4.8227,2.5347,5.7582,5.7582,0,0,1-5.9888-6.0786C33.3271,12.254,35.8842,9.8092,38.9794,9.8092Zm3.7237,5.1816a3.58,3.58,0,0,0-3.7237-3.6562,3.7724,3.7724,0,0,0-3.7456,3.6562Z"/>
            <path class="cls-1"
                  d="M47.1186,18.7589a3.1051,3.1051,0,0,0,2.916,1.7944,1.9358,1.9358,0,0,0,2.1533-1.8613c0-2.6919-5.8544-1.772-5.8544-5.72,0-1.9736,1.6372-3.1626,3.7456-3.1626A3.703,3.703,0,0,1,53.69,12.0524l-1.3008.74A2.4906,2.4906,0,0,0,49.9672,11.29a1.7124,1.7124,0,0,0-1.9292,1.6152c0,2.624,5.877,1.6372,5.877,5.6973,0,2.0634-1.7046,3.4541-3.97,3.4541a4.1609,4.1609,0,0,1-4.06-2.49Z"/>
            <path class="cls-1"
                  d="M55.8413,10.1007h1.7046V11.94a4.8275,4.8275,0,0,1,4.06-2.1309c3.3193,0,5.6973,2.5347,5.6973,6.1011,0,3.6113-2.2656,6.146-5.563,6.146a4.824,4.824,0,0,1-4.127-2.1758v6.0786H55.8413Zm5.6972,10.3408c2.2876,0,3.9478-1.8618,3.9478-4.5312,0-2.7364-1.7495-4.4859-3.9927-4.4859-2.4224,0-3.9477,2.041-3.9477,4.4859C57.5459,18.7814,59.34,20.4415,61.5385,20.4415Z"/>
            <path class="cls-1"
                  d="M70.4624,5.8839a1.2225,1.2225,0,1,1-1.211,1.2114A1.2116,1.2116,0,0,1,70.4624,5.8839Zm-.8746,4.2168H71.36V21.7648h-1.772Z"/>
        </g>
        <g>
            <g>
                <path class="cls-2"
                      d="M3.4339,21.1067A16.1753,16.1753,0,0,1,18.1441,10.11,10.8651,10.8651,0,0,0,2.6775,24.5733,16.2141,16.2141,0,0,1,3.4339,21.1067Z"/>
                <path class="cls-3"
                      d="M2.2644,20.5161a11.8481,11.8481,0,0,1,15.82-10.4016c.02-.0009.04-.0038.06-.0046A10.8651,10.8651,0,0,0,2.6775,24.5733c.0027-.0253.0073-.0506.01-.0759A11.8258,11.8258,0,0,1,2.2644,20.5161Z"/>
            </g>
            <path class="cls-2"
                  d="M3.4044,19.2543A23.2429,23.2429,0,0,1,23.4935,2.14,15.6123,15.6123,0,0,0,2.6367,24.2946,23.2963,23.2963,0,0,1,3.4044,19.2543Z"/>
            <path class="cls-3"
                  d="M1.6733,18.5144A17.0249,17.0249,0,0,1,23.4083,2.1517c.0287-.003.0566-.009.0852-.012A15.6124,15.6124,0,0,0,2.6367,24.2946c.0016-.0365.0058-.0732.0076-.11A16.9935,16.9935,0,0,1,1.6733,18.5144Z"/>
        </g>
</svg>
