<?xml version="1.0" encoding="UTF-8"?>
<svg id="Layer_2" xmlns="http://www.w3.org/2000/svg" version="1.1" viewBox="0 0 1790 233.5">
  <!-- Generator: Adobe Illustrator 29.6.1, SVG Export Plug-In . SVG Version: 2.1.1 Build 9)  -->
  <defs>
    <style>
      .st0 {
        fill: #25477b;
      }
    </style>
  </defs>
  <polygon class="st0" points="326.7 231 551.7 231 551.7 208 367.4 208 367.4 124.5 544.1 124.5 544.1 101.5 367.4 101.5 367.4 25.5 551.7 25.5 551.7 2.4 326.7 2.4 326.7 231"/>
  <polygon class="st0" points="1161.7 2.4 895.2 2.4 895.2 27.6 1008.6 27.6 1008.6 231 1049.3 231 1049.3 27.6 1161.7 27.6 1161.7 2.4"/>
  <path class="st0" d="M1305.3,2.4h-55.9l-128.2,228.6h43.2l26.8-48.1h175.4l27,48.1h42.5L1305.5,3l-.2-.6ZM1203.2,162.2l75.1-136.7,76,136.7h-151.1Z"/>
  <path class="st0" d="M1687.6,111.2c28.5-7,43-23.1,43-48.1s-6.7-41.4-20.1-49.1c-13.4-7.7-41.5-11.6-84.1-11.6h-154.8v228.6h171.2c36,0,61.6-5,76.2-14.7,14.6-9.8,22.1-27,22.1-51.4.2-29.5-17.9-47.6-53.5-53.8ZM1512.4,25.5h113.2c27.8,0,46,2.3,54.1,6.7,8.1,4.4,12,14.1,12,29.1s-4.6,28.6-13.8,33.5c-9.2,4.9-30.3,7.6-63.1,7.6h-102.5V25.5ZM1688.9,200.3c-9,5-28.7,7.4-58.4,7.4h-118.1v-82.4h100.4c41.2,0,66.7,2.3,75.9,6.8,9.2,4.5,13.6,16.8,13.6,36.8,0,15.9-4.5,26.5-13.5,31.4Z"/>
  <path class="st0" d="M137.9,116.6v23h112.7v13.2h0v.8h0c0,25.4-5,41.4-14.6,47.3s-35.8,9.2-77.5,9.2-88.5-3.3-101-9.8c-12.5-6.5-18.5-23.8-18.5-52v-32.4l.4-30.3c0-27.8,5.6-45.4,16.7-52.3,11.1-6.9,39.7-10.5,85-10.5s79.4,2.2,91,6.5c11.6,4.4,16.5,15.9,16.5,34.1v6h39.7v-9.2c0-25.3-8.8-42-26.2-49.3C244.7,3.8,206.5.1,147.6.1S49.1,5.7,29.6,16.8C10.2,28,0,50.8,0,84.5v53.6c0,40.2,9,66.3,26.6,77.9,17.6,11.5,57.4,17.4,118.6,17.4s105.4-4.9,120.8-14.7c15.4-9.8,22.3-32.5,23.3-69.1h0v-33h-151.4Z"/>
  <g>
    <path class="st0" d="M1784.1,196.8c-3.9-3.9-8.7-5.9-14.2-5.9s-10.3,2-14.2,5.9c-3.9,3.9-5.9,8.7-5.9,14.2s2,10.3,5.9,14.2c3.9,3.9,8.7,5.9,14.2,5.9s10.3-2,14.2-5.9c3.9-3.9,5.9-8.7,5.9-14.2s-2-10.3-5.9-14.2ZM1782.2,223.4c-3.4,3.4-7.5,5.2-12.3,5.2s-8.9-1.7-12.3-5.2c-3.4-3.4-5.1-7.6-5.1-12.4s1.7-8.9,5.1-12.4c3.4-3.4,7.5-5.2,12.3-5.2s8.9,1.7,12.3,5.2c3.4,3.4,5.1,7.6,5.1,12.4s-1.7,8.9-5.1,12.4Z"/>
    <path class="st0" d="M1772.8,211.2c1.5-.6,2.7-1.4,3.6-2.4.9-1,1.3-2.3,1.3-3.8s-.2-2.1-.7-2.8c-.5-.8-1.2-1.4-2.2-1.9-.9-.5-1.8-.8-2.8-.9-.9-.1-2.1-.2-3.6-.2h-7.3v21.3h3.8v-8.3h3.8l7.7,8.3h5.2l-8.9-9.3ZM1770.5,209.1c-.7.1-1.5.2-2.5.2h-3v-7.2h3.5c.8,0,1.5,0,2,.1.5,0,1.1.2,1.5.5.5.3.9.6,1.1,1.1.2.4.3.9.3,1.5s0,1.3-.3,1.7c-.2.5-.5.9-1,1.3-.4.4-1,.6-1.7.8Z"/>
  </g>
  <path class="st0" d="M854.6,19c-16.5-12.6-58.2-19-123.9-19s0,0-.1,0,0,0-.1,0c-65.7,0-107.3,6.4-123.9,19-16.6,12.6-25,44.5-25,94.7s8.1,87.9,24,100.7c15.9,12.7,57.9,19.1,124.9,19.1s0,0,.1,0,0,0,.1,0c67,0,109-6.4,124.9-19.1,15.9-12.7,24-46.6,24-100.7s-8.4-82-25-94.7ZM826.9,198.5c-9.2,7.8-41.6,11.8-96.3,11.8-54.8,0-87.2-4-96.3-11.8-9.1-7.8-13.8-35.4-13.8-81.9l.3-36.3c0-24.7,6.4-40.6,19-47.2,12.8-6.7,43.3-10.1,90.9-10.1,47.5,0,78.1,3.4,90.9,10.1,12.6,6.6,19,22.5,19,47.2l.3,36.3c0,46.5-4.6,74.1-13.8,81.9Z"/>
</svg>