<svg xmlns="http://www.w3.org/2000/svg" width="32" height="32" viewBox="0 0 32 32"><title>baby-stroller</title><g fill="#A78BFA"><path d="M5.5,32A3.5,3.5,0,1,1,9,28.5,3.5,3.5,0,0,1,5.5,32Zm0-5A1.5,1.5,0,1,0,7,28.5,1.5,1.5,0,0,0,5.5,27Z"></path><path d="M25.5,32A3.5,3.5,0,1,1,29,28.5,3.5,3.5,0,0,1,25.5,32Zm0-5A1.5,1.5,0,1,0,27,28.5,1.5,1.5,0,0,0,25.5,27Z"></path><path d="M9.649,18.1l2.582-2.58-5.462-.993a1.5,1.5,0,0,0-1.266.355L1.184,19.054l1.633,1.892,4.134-3.338Z"></path><path d="M17.228,10.525c-.017,0-.032-.009-.05-.011L9.154,9.759,8.841,12.24l5.766.9Z"></path><path d="M22.314,24h0L9,23.986a1,1,0,0,1-.706-1.707l22-21.986a1,1,0,1,1,1.414,1.414L27.955,5.459l-1.664,14.98A4,4,0,0,1,22.314,24Z" fill="currentColor"></path><path d="M18.5,9c.1,0,.186-.021.28-.028l3.192-3.19C21.979,5.688,22,5.6,22,5.5A3.5,3.5,0,1,0,18.5,9Z"></path></g></svg>