<svg xmlns="http://www.w3.org/2000/svg" width="32" height="32" viewBox="0 0 32 32"><title>l-settings</title><g fill="#A78BFA"><circle fill="currentColor" cx="16" cy="7" r="1"></circle> <path d="M32,25v-2h-2.101c-0.13-0.637-0.384-1.229-0.732-1.753l1.489-1.489l-1.414-1.414 l-1.489,1.489c-0.524-0.348-1.116-0.602-1.753-0.732V17h-2v2.101c-0.637,0.13-1.229,0.384-1.753,0.732l-1.489-1.489l-1.414,1.414 l1.489,1.489c-0.348,0.524-0.602,1.116-0.732,1.753H18v2h2.101c0.13,0.637,0.384,1.229,0.732,1.753l-1.489,1.489l1.414,1.414 l1.489-1.489c0.524,0.348,1.116,0.602,1.753,0.732V31h2v-2.101c0.637-0.13,1.229-0.384,1.753-0.732l1.489,1.489l1.414-1.414 l-1.489-1.489c0.348-0.524,0.602-1.116,0.732-1.753H32z M27,24c0,1.103-0.897,2-2,2s-2-0.897-2-2s0.897-2,2-2S27,22.897,27,24z"></path> <path fill="currentColor" d="M27,5v10.231c0.702,0.16,1.371,0.403,2,0.716V5c0-1.654-1.346-3-3-3H6C4.346,2,3,3.346,3,5v15h2V5 c0-0.551,0.448-1,1-1h20C26.552,4,27,4.449,27,5z"></path> <path fill="currentColor" d="M16,24c0-0.688,0.084-1.356,0.231-2H0v1c0,2.757,2.243,5,5,5h11.947C16.346,26.794,16,25.439,16,24z"></path></g></svg>