<svg xmlns="http://www.w3.org/2000/svg" width="32" height="32" viewBox="0 0 32 32"><title>world-pin</title><g fill="#A78BFA"><path d="M29.755,11.033a19.713,19.713,0,0,1-1.332,2.139A12.945,12.945,0,0,1,27.332,23.35L25.61,21.156a.983.983,0,0,0-.4-.3l-3.564-1.508a.991.991,0,0,0-.572-.062l-4.216.784a1,1,0,0,0-.752.627l-1.462,3.844a1,1,0,0,0-.026.631l.917,3.2-.7,1.573A12.92,12.92,0,0,1,8.032,27.25l.832-.364A.993.993,0,0,0,9.3,26.52l1.708-2.592a1,1,0,0,0-.223-1.341L8.338,20.693l-.979-1.75L6.5,17.15,8.3,15.014l3.135-.58a1,1,0,0,0,.816-.925l.175-2.994a1,1,0,0,0-.217-.683L10.448,7.626l-1.38-1.61a12.92,12.92,0,0,1,4.308-1.75,8.338,8.338,0,0,1,1.017-2.177,15.015,15.015,0,1,0,15.362,8.944Z" fill="currentColor"></path><path d="M22,0a6.9,6.9,0,0,0-7,6.8c0,3.9,5.7,9.3,6.3,9.9a.967.967,0,0,0,1.4,0c.6-.6,6.3-6,6.3-9.9A6.9,6.9,0,0,0,22,0Zm0,9a2,2,0,1,1,2-2A2.006,2.006,0,0,1,22,9Z"></path></g></svg>