<svg xmlns="http://www.w3.org/2000/svg" width="16" height="16" viewBox="0 0 16 16"><title>magic-wand</title><g fill="currentColor"><path d="M6.5,2c-.827,0-1.5-.673-1.5-1.5,0-.276-.224-.5-.5-.5s-.5,.224-.5,.5c0,.827-.673,1.5-1.5,1.5-.276,0-.5,.224-.5,.5s.224,.5,.5,.5c.827,0,1.5,.673,1.5,1.5,0,.276,.224,.5,.5,.5s.5-.224,.5-.5c0-.827,.673-1.5,1.5-1.5,.276,0,.5-.224,.5-.5s-.224-.5-.5-.5Z"></path><path d="M11.5,3c.827,0,1.5,.673,1.5,1.5,0,.276,.224,.5,.5,.5s.5-.224,.5-.5c0-.827,.673-1.5,1.5-1.5,.276,0,.5-.224,.5-.5s-.224-.5-.5-.5c-.827,0-1.5-.673-1.5-1.5,0-.276-.224-.5-.5-.5s-.5,.224-.5,.5c0,.827-.673,1.5-1.5,1.5-.276,0-.5,.224-.5,.5s.224,.5,.5,.5Z"></path><path d="M15.5,10.993c-.827,0-1.5-.673-1.5-1.5,0-.276-.224-.5-.5-.5s-.5,.224-.5,.5c0,.827-.673,1.5-1.5,1.5-.276,0-.5,.224-.5,.5s.224,.5,.5,.5c.827,0,1.5,.673,1.5,1.5,0,.276,.224,.5,.5,.5s.5-.224,.5-.5c0-.827,.673-1.5,1.5-1.5,.276,0,.5-.224,.5-.5s-.224-.5-.5-.5Z"></path><path d="M10.707,6.293l-1-1c-.391-.391-1.023-.391-1.414,0l-1.97,1.97,2.414,2.414,1.97-1.97c.391-.391,.391-1.023,0-1.414Z" fill="currentColor"></path><path d="M5.263,8.323L.293,13.293c-.391,.391-.391,1.023,0,1.414l1,1c.195,.195,.451,.293,.707,.293s.512-.098,.707-.293l4.97-4.97-2.414-2.414Z" fill="currentColor"></path></g></svg>