<svg xmlns="http://www.w3.org/2000/svg" width="32" height="32" viewBox="0 0 32 32"><title>mountain</title><g fill="#A78BFA"><path fill="currentColor" d="M29.87939,27.52344l-13-23.99951c-0.34961-0.64551-1.40918-0.64551-1.75879,0l-13,23.99951 c-0.16797,0.31055-0.16016,0.68555,0.02002,0.98828C2.32129,28.81445,2.64746,29,3,29h26c0.35254,0,0.67871-0.18555,0.85938-0.48828 C30.03955,28.20898,30.04736,27.83398,29.87939,27.52344z"></path> <path d="M27.53705,19H30c0.35791,0,0.68896-0.19141,0.86719-0.50195s0.17725-0.69238-0.00342-1.00195 l-7-12c-0.17383-0.29785-0.48877-0.48535-0.83398-0.49561c-0.3291-0.00684-0.67041,0.1582-0.86182,0.44482l-1.08856,1.63287 L27.53705,19z"></path> <path d="M2,19h2.46295l6.4577-11.92194L9.83203,5.44531 C9.64062,5.1582,9.29785,4.97852,8.97021,5.00049C8.625,5.01074,8.31006,5.19824,8.13623,5.49609l-7,12 c-0.18066,0.30957-0.18164,0.69141-0.00342,1.00195S1.64209,19,2,19z"></path></g></svg>