<svg xmlns="http://www.w3.org/2000/svg" width="16" height="16" viewBox="0 0 16 16"><title>team</title><g fill="currentColor"><path d="M8,5h0c-1.417,0-2.5-1.083-2.5-2.5h0c0-1.417,1.083-2.5,2.5-2.5h0c1.417,0,2.5,1.083,2.5,2.5h0c0,1.417-1.083,2.5-2.5,2.5Z" fill="currentColor"></path><path d="M2.5,5h0c-.825,0-1.5-.675-1.5-1.5h0c0-.825,.675-1.5,1.5-1.5h0c.825,0,1.5,.675,1.5,1.5h0c0,.825-.675,1.5-1.5,1.5Z"></path><path d="M2.955,12.77c-.383-.468-.534-1.072-.417-1.662l.679-3.393c.11-.551,.342-1.048,.649-1.488-.224-.133-.472-.228-.749-.228H1.883c-.755,0-1.395,.565-1.488,1.314L.004,10.438c-.018,.142,.026,.285,.121,.393,.095,.107,.231,.169,.375,.169h.54l.212,2.542c.021,.259,.238,.458,.498,.458h1.5c.26,0,.477-.199,.498-.458l.016-.189c-.31-.123-.591-.317-.809-.582Z"></path><path d="M13.5,5h0c.825,0,1.5-.675,1.5-1.5h0c0-.825-.675-1.5-1.5-1.5h0c-.825,0-1.5,.675-1.5,1.5h0c0,.825,.675,1.5,1.5,1.5Z"></path><path d="M13.045,12.77c.383-.468,.534-1.072,.417-1.662l-.679-3.393c-.11-.551-.342-1.048-.649-1.488,.224-.133,.472-.228,.749-.228h1.234c.755,0,1.395,.565,1.488,1.314l.391,3.124c.018,.142-.026,.285-.121,.393-.095,.107-.231,.169-.375,.169h-.54s-.212,2.542-.212,2.542c-.021,.259-.238,.458-.498,.458h-1.5c-.26,0-.477-.199-.498-.458l-.016-.189c.31-.123,.591-.317,.809-.582Z"></path><path d="M11.312,8.01c-.233-1.165-1.264-2.01-2.452-2.01h-1.721c-1.188,0-2.219,.845-2.452,2.01l-.678,3.392c-.029,.147,.009,.299,.104,.415,.095,.116,.237,.183,.387,.183h1.059l.445,3.562c.031,.25,.244,.438,.496,.438h3c.252,0,.465-.188,.496-.438l.445-3.562h1.059c.15,0,.292-.067,.387-.183,.095-.116,.133-.268,.104-.415l-.678-3.392Z" fill="currentColor"></path></g></svg>