<svg xmlns="http://www.w3.org/2000/svg" width="32" height="32" viewBox="0 0 32 32"><title>heartbeat</title><g fill="#A78BFA"><path d="M18.7,23.062a1,1,0,0,1-1.632-.046l-4.938-7.408L10.99,17.514a1,1,0,0,1-.857.486H3.956C8.326,24.634,16,30.964,16,30.964S23.674,24.634,28.044,18H22.5Z"></path> <path d="M30.18,14A10.12,10.12,0,0,0,31,10.315,8.169,8.169,0,0,0,16,5.727,8.3,8.3,0,0,0,9.2,2.036,8.248,8.248,0,0,0,1,10.315,10.123,10.123,0,0,0,1.821,14H0v2H9.566l2.479-4.131,5.907,8.861L21.5,16H32V14Z" fill="currentColor"></path></g></svg>