<svg xmlns="http://www.w3.org/2000/svg" width="48" height="48" viewBox="0 0 48 48"><title>logo-slack</title><g><path d="M18.133,2a4.4,4.4,0,1,0,0,8.8h4.4V6.4a4.4,4.4,0,0,0-4.4-4.4" fill="#36c5f0"></path><path d="M18.133,13.733H6.4a4.4,4.4,0,1,0,0,8.8H18.134a4.4,4.4,0,0,0,0-8.8" fill="#36c5f0"></path><path d="M46,18.134a4.4,4.4,0,1,0-8.8,0v4.4h4.4a4.4,4.4,0,0,0,4.4-4.4" fill="#2eb67d"></path><path d="M34.267,18.134V6.4a4.4,4.4,0,1,0-8.8,0V18.133a4.4,4.4,0,1,0,8.8,0" fill="#2eb67d"></path><path d="M29.866,46a4.4,4.4,0,1,0,0-8.8h-4.4v4.4a4.4,4.4,0,0,0,4.4,4.4" fill="#ecb22e"></path><path d="M29.866,34.267H41.6a4.4,4.4,0,1,0,0-8.8H29.866a4.4,4.4,0,0,0,0,8.8h0" fill="#ecb22e"></path><path d="M2,29.866a4.4,4.4,0,0,0,4.4,4.4h0a4.4,4.4,0,0,0,4.4-4.4v-4.4H6.4a4.4,4.4,0,0,0-4.4,4.4" fill="#e01e5a"></path><path d="M13.733,29.866V41.6a4.4,4.4,0,1,0,8.8,0V29.866a4.4,4.4,0,0,0-4.4-4.4h0a4.4,4.4,0,0,0-4.4,4.4" fill="#e01e5a"></path></g></svg>