<svg width="144" height="134" viewBox="0 0 144 134" fill="none" xmlns="http://www.w3.org/2000/svg">
<g filter="url(#filter0_i_151_32984)">
<path d="M81.3685 5C82.2301 5 82.8018 5.89253 82.4417 6.6752L64.4122 45.8534C64.052 46.636 64.6238 47.5286 65.4853 47.5286H137.467C138.332 47.5286 138.904 48.4291 138.536 49.2126L101.282 128.432C101.087 128.846 100.671 129.111 100.213 129.111H62.632C61.7705 129.111 61.1987 128.218 61.5589 127.435L79.5883 88.2573C79.9485 87.4746 79.3767 86.5821 78.5152 86.5821H6.53383C5.66803 86.5821 5.09635 85.6815 5.46479 84.898L42.7183 5.67861C42.9131 5.26441 43.3296 5 43.7874 5H81.3685Z" fill="url(#paint0_linear_151_32984)"/>
</g>
<path d="M81.3682 2.6377C83.9529 2.6377 85.6684 5.31509 84.5879 7.66309L67.3291 45.166H137.467C140.064 45.1661 141.779 47.8674 140.674 50.2178L103.42 129.438C102.836 130.68 101.586 131.474 100.213 131.474H62.6318C60.0473 131.474 58.3316 128.795 59.4121 126.447L76.6719 88.9443H6.53418C3.93678 88.9443 2.22181 86.2431 3.32715 83.8926L40.5801 4.67285L40.6973 4.44531C41.321 3.33439 42.4999 2.63779 43.7871 2.6377H81.3682Z" stroke="white" stroke-opacity="0.1" stroke-width="4.72536"/>
<defs>
<filter id="filter0_i_151_32984" x="0.620117" y="0.274658" width="142.761" height="135.136" filterUnits="userSpaceOnUse" color-interpolation-filters="sRGB">
<feFlood flood-opacity="0" result="BackgroundImageFix"/>
<feBlend mode="normal" in="SourceGraphic" in2="BackgroundImageFix" result="shape"/>
<feColorMatrix in="SourceAlpha" type="matrix" values="0 0 0 0 0 0 0 0 0 0 0 0 0 0 0 0 0 0 127 0" result="hardAlpha"/>
<feOffset dy="1.57512"/>
<feGaussianBlur stdDeviation="1.57512"/>
<feComposite in2="hardAlpha" operator="arithmetic" k2="-1" k3="1"/>
<feColorMatrix type="matrix" values="0 0 0 0 0 0 0 0 0 0 0 0 0 0 0 0 0 0 0.15 0"/>
<feBlend mode="normal" in2="shape" result="effect1_innerShadow_151_32984"/>
</filter>
<linearGradient id="paint0_linear_151_32984" x1="72.0003" y1="5" x2="72.0003" y2="129.111" gradientUnits="userSpaceOnUse">
<stop stop-color="white"/>
<stop offset="1" stop-color="#A053F0"/>
</linearGradient>
</defs>
</svg>
